<svg xmlns="http://www.w3.org/2000/svg" xmlns:xlink="http://www.w3.org/1999/xlink" viewBox="0 0 318.47 265.83"><defs><style>.cls-1{isolation:isolate;}.cls-2{opacity:0.88;fill:url(#radial-gradient);}.cls-3{fill:#cdcdcd;}.cls-3,.cls-5,.cls-6,.cls-7,.cls-8{stroke:#000;stroke-linecap:round;stroke-linejoin:round;}.cls-3,.cls-5,.cls-7,.cls-8{stroke-width:2px;}.cls-4,.cls-5{fill:#514a3e;}.cls-4{mix-blend-mode:multiply;opacity:0.17;}.cls-6{stroke-width:0.75px;}.cls-7{fill:url(#linear-gradient);}.cls-8{fill:none;}</style><radialGradient id="radial-gradient" cx="159.23" cy="163.11" r="150.5" gradientTransform="translate(-2.26 -17.89) scale(1.01 0.92)" gradientUnits="userSpaceOnUse"><stop offset="0" stop-color="#ff5f00"/><stop offset="0.14" stop-color="#ff8035"/><stop offset="0.31" stop-color="#ffa671"/><stop offset="0.48" stop-color="#ffc6a4"/><stop offset="0.64" stop-color="#ffdfcb"/><stop offset="0.78" stop-color="#fff0e8"/><stop offset="0.91" stop-color="#fffbf9"/><stop offset="1" stop-color="#fff"/></radialGradient><linearGradient id="linear-gradient" x1="159.22" y1="97.59" x2="159.22" y2="165.26" gradientUnits="userSpaceOnUse"><stop offset="0" stop-color="#ff6855"/><stop offset="1" stop-color="#ff3600"/></linearGradient></defs><g class="cls-1"><g id="Layer_2" data-name="Layer 2"><g id="Layer_1-2" data-name="Layer 1"><path class="cls-2" d="M318.47,138.78C318.47,62.13,247.18,0,159.23,0S0,62.13,0,138.78s71.29,126,159.23,126S318.47,215.43,318.47,138.78Z"/><polygon class="cls-3" points="293.28 188.65 248.49 120.71 69.95 120.71 25.16 188.65 293.28 188.65"/><rect class="cls-3" x="25.16" y="188.65" width="268.12" height="76.18"/><polygon class="cls-4" points="215.92 188.65 237.89 153.83 80.58 153.83 102.55 188.65 215.92 188.65"/><path class="cls-5" d="M89.61,137.23C83,140.81,79.27,145,79.27,149.37c0,13.62,35.8,24.67,80,24.67s79.95-11,79.95-24.67c0-4.36-3.65-8.45-10.06-12Z"/><path class="cls-6" d="M94.59,137.3c-6.11,3.06-9.6,6.59-9.6,10.36,0,11.62,33.23,21.05,74.23,21.05s74.23-9.43,74.23-21.05c0-3.72-3.39-7.21-9.34-10.23Z"/><path class="cls-7" d="M88.72,145.78c0,10.76,31.56,19.48,70.5,19.48s70.51-8.72,70.51-19.48l-6-30.36c0-9.85-28.89-17.83-64.54-17.83s-64.54,8-64.54,17.83Z"/><ellipse class="cls-8" cx="159.22" cy="115.42" rx="64.54" ry="17.83"/><path class="cls-4" d="M223.76,115.42c0,9.85-16.13,23.36-64.54,23.36s-64.54-13.51-64.54-23.36c0,9.85,28.89,17.84,64.54,17.84S223.76,125.27,223.76,115.42Z"/></g></g></g></svg>