<svg xmlns="http://www.w3.org/2000/svg" xmlns:xlink="http://www.w3.org/1999/xlink" viewBox="0 0 270.12 199.67"><defs><style>.cls-1{isolation:isolate;}.cls-2{fill:#cdcdcd;}.cls-2,.cls-4,.cls-5,.cls-6,.cls-7{stroke:#000;stroke-linecap:round;stroke-linejoin:round;}.cls-2,.cls-4,.cls-6,.cls-7{stroke-width:2px;}.cls-3,.cls-4{fill:#514a3e;}.cls-3{mix-blend-mode:multiply;opacity:0.17;}.cls-5{stroke-width:0.75px;}.cls-6{fill:url(#linear-gradient);}.cls-7{fill:none;}</style><linearGradient id="linear-gradient" x1="135.06" y1="1" x2="135.06" y2="99.09" gradientUnits="userSpaceOnUse"><stop offset="0" stop-color="#ff6855"/><stop offset="1" stop-color="#ff3600"/></linearGradient></defs><g class="cls-1"><g id="Layer_2" data-name="Layer 2"><g id="Layer_1-2" data-name="Layer 1"><polygon class="cls-2" points="269.12 122.49 224.34 54.54 45.79 54.54 1 122.49 269.12 122.49"/><rect class="cls-2" x="1" y="122.49" width="268.12" height="76.18"/><polygon class="cls-3" points="191.76 122.49 213.73 87.66 56.42 87.66 78.39 122.49 191.76 122.49"/><path class="cls-4" d="M65.45,71.06c-6.58,3.58-10.34,7.73-10.34,12.14,0,13.63,35.8,24.67,80,24.67S215,96.83,215,83.2c0-4.35-3.65-8.44-10.06-12Z"/><path class="cls-5" d="M70.43,71.13c-6.11,3.06-9.6,6.6-9.6,10.36,0,11.63,33.24,21.05,74.23,21.05s74.23-9.42,74.23-21.05c0-3.71-3.39-7.2-9.34-10.23Z"/><path class="cls-6" d="M64.56,79.61c0,10.76,31.56,19.48,70.5,19.48s70.51-8.72,70.51-19.48l-6-60.78C199.61,9,170.71,1,135.06,1S70.52,9,70.52,18.83Z"/><ellipse class="cls-7" cx="135.06" cy="18.83" rx="64.54" ry="17.83"/><path class="cls-3" d="M199.61,18.83c0,9.85-16.14,23.36-64.55,23.36S70.52,28.68,70.52,18.83c0,9.85,28.9,17.84,64.54,17.84S199.61,28.68,199.61,18.83Z"/></g></g></g></svg>